<svg xmlns="http://www.w3.org/2000/svg" version="1.1" xmlns:xlink="http://www.w3.org/1999/xlink" xmlns:svgjs="http://svgjs.com/svgjs" width="1440" height="560" preserveAspectRatio="none" viewBox="0 0 1440 560"><g mask="url(&quot;#SvgjsMask1015&quot;)" fill="none"><rect width="1440" height="560" x="0" y="0" fill="rgba(0, 0, 0, 1)"></rect><path d="M 0,22 C 41.2,35 123.6,90.2 206,87 C 288.4,83.8 329.6,-2.6 412,6 C 494.4,14.6 535.6,120.8 618,130 C 700.4,139.2 741.6,60.4 824,52 C 906.4,43.6 947.6,90.8 1030,88 C 1112.4,85.2 1154,40.6 1236,38 C 1318,35.4 1399.2,67.6 1440,75L1440 560L0 560z" fill="rgba(0, 0, 0, 1)"></path><path d="M 0,179 C 96,196.2 288,269.6 480,265 C 672,260.4 768,164.2 960,156 C 1152,147.8 1344,210.4 1440,224L1440 560L0 560z" fill="rgba(85, 85, 85, 1)"></path><path d="M 0,333 C 57.6,340.8 172.8,372.8 288,372 C 403.2,371.2 460.8,327.2 576,329 C 691.2,330.8 748.8,382.4 864,381 C 979.2,379.6 1036.8,327.2 1152,322 C 1267.2,316.8 1382.4,348.4 1440,355L1440 560L0 560z" fill="rgba(151, 151, 151, 1)"></path><path d="M 0,542 C 96,527.6 288,479.4 480,470 C 672,460.6 768,500.6 960,495 C 1152,489.4 1344,452.6 1440,442L1440 560L0 560z" fill="rgba(197, 197, 197, 1)"></path></g><defs><mask id="SvgjsMask1015"><rect width="1440" height="560" fill="#ffffff"></rect></mask></defs></svg>